<svg xmlns="http://www.w3.org/2000/svg" shape-rendering="crispEdges" viewBox="0 -0.5 16 16"><path stroke="currentcolor" d="M0 0h7m1 0h3m1 0h4M0 1h1m2 0h1m2 0h1m1 0h1m1 0h1m1 0h1m2 0h1M0 2h1m2 0h1m2 0h1m1 0h3m1 0h1m2 0h1M0 3h1m5 0h1m5 0h1m2 0h1M0 4h1m5 0h1m1 0h5m2 0h1M0 5h1m5 0h1m1 0h1m3 0h1m2 0h1M0 7h3m1 0h3m1 0h1m1 0h1m1 0h4M0 8h1m1 0h1m1 0h1m1 0h1m1 0h1m1 0h1m1 0h1m2 0h1M0 9h3m1 0h1m1 0h1m1 0h3m1 0h4m-6 1h1m1 0h1m2 0h1M0 11h11m1 0h1m2 0h1M0 13h3m1 0h12M0 14h1m1 0h1m1 0h1m10 0h1M0 15h1m3 0h12"/></svg>